<?xml version="1.0" standalone="no"?><!DOCTYPE svg PUBLIC "-//W3C//DTD SVG 1.1//EN" "http://www.w3.org/Graphics/SVG/1.1/DTD/svg11.dtd"><svg t="1528183202943" class="icon" style="" viewBox="0 0 1025 1024" version="1.1" xmlns="http://www.w3.org/2000/svg" p-id="785" xmlns:xlink="http://www.w3.org/1999/xlink" width="200.1953125" height="200"><defs><style type="text/css"></style></defs><path d="M198.262154 157.538462H40.802462a39.384615 39.384615 0 0 0 0 78.76923H198.262154a39.384615 39.384615 0 0 0 0-78.76923z" fill="#999999" p-id="786"></path><path d="M316.494769 196.923077m-118.153846 0a118.153846 118.153846 0 1 0 236.307692 0 118.153846 118.153846 0 1 0-236.307692 0Z" fill="#FFFFFF" p-id="787"></path><path d="M316.494769 118.153846c43.401846 0 78.769231 35.367385 78.769231 78.769231s-35.367385 78.769231-78.769231 78.769231-78.769231-35.367385-78.769231-78.769231 35.367385-78.769231 78.769231-78.769231m0-78.769231a157.538462 157.538462 0 1 0-0.078769 314.998154A157.538462 157.538462 0 0 0 316.416 39.384615z" fill="#999999" p-id="788"></path><path d="M710.340923 512m-118.153846 0a118.153846 118.153846 0 1 0 236.307692 0 118.153846 118.153846 0 1 0-236.307692 0Z" fill="#FFFFFF" p-id="789"></path><path d="M710.340923 433.230769c43.401846 0 78.769231 35.367385 78.769231 78.769231s-35.367385 78.769231-78.769231 78.769231-78.769231-35.367385-78.769231-78.769231 35.367385-78.769231 78.769231-78.769231m0-78.769231a157.538462 157.538462 0 1 0-0.078769 314.998154A157.538462 157.538462 0 0 0 710.262154 354.461538z" fill="#999999" p-id="790"></path><path d="M316.494769 827.076923m-118.153846 0a118.153846 118.153846 0 1 0 236.307692 0 118.153846 118.153846 0 1 0-236.307692 0Z" fill="#FFFFFF" p-id="791"></path><path d="M316.494769 748.307692c43.401846 0 78.769231 35.367385 78.769231 78.769231s-35.367385 78.769231-78.769231 78.769231-78.769231-35.367385-78.769231-78.769231 35.367385-78.769231 78.769231-78.769231m0-78.76923a157.538462 157.538462 0 1 0-0.078769 314.998153A157.538462 157.538462 0 0 0 316.416 669.538462zM985.954462 157.538462H434.727385a39.384615 39.384615 0 0 0 0 78.76923h551.305846a39.384615 39.384615 0 1 0-0.078769-78.76923zM590.611692 472.615385H39.305846a39.384615 39.384615 0 0 0 0 78.76923h551.305846a39.384615 39.384615 0 0 0 0-78.76923z" fill="#999999" p-id="792"></path><path d="M984.457846 472.615385h-157.380923a39.384615 39.384615 0 0 0 0 78.76923h157.380923a39.384615 39.384615 0 0 0 0-78.76923z" fill="#999999" p-id="793"></path><path d="M198.262154 787.692308H40.802462a39.384615 39.384615 0 0 0 0 78.76923H198.262154a39.384615 39.384615 0 0 0 0-78.76923z" fill="#999999" p-id="794"></path><path d="M985.954462 787.692308H513.496615a39.384615 39.384615 0 0 0 0 78.76923h472.457847a39.384615 39.384615 0 0 0 0-78.76923z" fill="#999999" p-id="795"></path></svg>