<?xml version="1.0" standalone="no"?><!DOCTYPE svg PUBLIC "-//W3C//DTD SVG 1.1//EN" "http://www.w3.org/Graphics/SVG/1.1/DTD/svg11.dtd"><svg t="1531477113425" class="icon" style="" viewBox="0 0 1024 1024" version="1.1" xmlns="http://www.w3.org/2000/svg" p-id="1541" xmlns:xlink="http://www.w3.org/1999/xlink" width="25" height="25"><defs><style type="text/css"></style></defs><path d="M461.155909 562.844091h-305.064549v54.403178a10.168818 10.168818 0 0 1-16.77855 7.626614L13.219464 519.626614a10.168818 10.168818 0 0 1 0-14.236346l126.093346-106.772592a10.168818 10.168818 0 0 1 16.77855 8.135055v54.403178h305.064549v-305.064549H406.752731a10.168818 10.168818 0 0 1-7.626614-16.77855L504.373386 13.219464a10.168818 10.168818 0 0 1 14.236346 0l106.772592 126.093346a10.168818 10.168818 0 0 1-7.626614 16.77855h-54.911619v305.064549h305.064549V406.752731a10.168818 10.168818 0 0 1 16.77855-7.626614l126.601787 105.247269a10.168818 10.168818 0 0 1 0 14.236346l-126.601787 106.772592a10.168818 10.168818 0 0 1-16.77855-7.626614v-54.911619h-305.064549v305.064549h54.403178a10.168818 10.168818 0 0 1 7.626614 16.77855l-105.247269 126.601787a10.168818 10.168818 0 0 1-14.236346 0l-106.772592-126.601787a10.168818 10.168818 0 0 1 8.135055-16.77855h54.403178z" fill="#666666" p-id="1542"></path></svg>