<?xml version="1.0" standalone="no"?><!DOCTYPE svg PUBLIC "-//W3C//DTD SVG 1.1//EN" "http://www.w3.org/Graphics/SVG/1.1/DTD/svg11.dtd"><svg t="1531477132496" class="icon" style="" viewBox="0 0 1024 1024" version="1.1" xmlns="http://www.w3.org/2000/svg" p-id="1666" xmlns:xlink="http://www.w3.org/1999/xlink" width="25" height="25"><defs><style type="text/css"></style></defs><path d="M64 348.224l190.912 0L254.912 158.72 64 158.72 64 348.224zM89.152 183.744 229.76 183.744l0 139.584L89.152 323.328 89.152 183.744z" p-id="1667"></path><path d="M64 608.192l190.912 0L254.912 418.688 64 418.688 64 608.192zM89.152 443.712 229.76 443.712l0 139.584L89.152 583.296 89.152 443.712z" p-id="1668"></path><path d="M64 675.84l190.912 0 0 189.44-190.912 0 0-189.44Z" p-id="1669"></path><path d="M346.048 675.84l613.952 0 0 189.44-613.952 0 0-189.44Z" p-id="1670"></path><path d="M346.048 158.72 346.048 348.224 465.024 348.224 465.024 323.328 372.48 323.328 372.48 182.272 934.976 182.272 934.976 323.328 839.488 323.328 839.488 348.224 960 348.224 960 158.72Z" p-id="1671"></path><path d="M583.04 584.768 371.008 584.768 371.008 443.712 441.984 443.712 441.984 418.688 346.048 418.688 346.048 608.192 583.04 608.192Z" p-id="1672"></path><path d="M864 443.712 933.568 443.712 933.568 584.768 722.048 584.768 722.048 608.192 960 608.192 960 418.688 864 418.688Z" p-id="1673"></path><path d="M698.56 608.192 698.56 369.024 840.384 512.896 840.384 395.648 652.352 206.656 652.352 207.36 464.512 396.224 464.512 513.472 606.016 369.984 606.016 608.192Z" p-id="1674"></path></svg>