<?xml version="1.0" standalone="no"?><!DOCTYPE svg PUBLIC "-//W3C//DTD SVG 1.1//EN" "http://www.w3.org/Graphics/SVG/1.1/DTD/svg11.dtd"><svg t="1529488821625" class="icon" style="" viewBox="0 0 1024 1024" version="1.1" xmlns="http://www.w3.org/2000/svg" p-id="1520" xmlns:xlink="http://www.w3.org/1999/xlink" width="200" height="200"><defs><style type="text/css"></style></defs><path d="M512 1.272c-282.328 0-512 229.04-512 511.336S229.648 1024 511.952 1024H512c282.296 0 511.968-229.064 511.968-511.392C1023.968 230.312 794.296 1.272 512 1.272zM960.688 480H717.752c-3.736-160-35.896-314.496-93.912-404.784C808.424 122.664 947.328 296 960.688 480z m-448.72 479.472s0-2.008-0.016-2.008C453.864 957.432 373.944 816 367.96 536h288.056c-5.984 280-85.92 423.472-144.048 423.472zM367.944 480c5.984-248 85.92-419.4 144.024-419.4C570.096 60.6 650.048 232 656.032 480H367.944z m32.176-404.776C342.12 165.52 309.96 320 306.208 480H63.288C76.656 296 215.52 122.696 400.12 75.224zM63.288 536h242.92c3.752 160 35.912 314.488 93.896 404.776C215.536 893.312 76.664 752 63.288 536z m560.568 404.776C681.856 850.488 714.016 696 717.752 536h242.936c-13.392 216-152.264 357.336-336.832 404.776z" fill="#888888" p-id="1521"></path></svg>