<?xml version="1.0" standalone="no"?><!DOCTYPE svg PUBLIC "-//W3C//DTD SVG 1.1//EN" "http://www.w3.org/Graphics/SVG/1.1/DTD/svg11.dtd"><svg t="1527756285916" class="icon" style="" viewBox="0 0 1024 1024" version="1.1" xmlns="http://www.w3.org/2000/svg" p-id="3337" xmlns:xlink="http://www.w3.org/1999/xlink" width="200" height="200"><defs><style type="text/css"></style></defs><path d="M512 448c-36.266667 0-64 27.733333-64 64 0 36.266667 27.733333 64 64 64s64-27.733333 64-64C576 475.733333 548.266667 448 512 448zM512 298.666667c-117.333333 0-213.333333 96-213.333333 213.333333 0 117.333333 96 213.333333 213.333333 213.333333 117.333333 0 213.333333-96 213.333333-213.333333C725.333333 394.666667 629.333333 298.666667 512 298.666667zM512 682.666667c-93.866667 0-170.666667-76.8-170.666667-170.666667 0-93.866667 76.8-170.666667 170.666667-170.666667s170.666667 76.8 170.666667 170.666667C682.666667 605.866667 605.866667 682.666667 512 682.666667zM512 213.333333C251.733333 213.333333 42.666667 426.666667 42.666667 512s209.066667 298.666667 469.333333 298.666667c260.266667 0 469.333333-213.333333 469.333333-298.666667S772.266667 213.333333 512 213.333333zM512 768C277.333333 768 85.333333 584.533333 85.333333 512s192-256 426.666667-256c234.666667 0 426.666667 183.466667 426.666667 256S746.666667 768 512 768z" p-id="3338"></path></svg>