<?xml version="1.0" standalone="no"?><!DOCTYPE svg PUBLIC "-//W3C//DTD SVG 1.1//EN" "http://www.w3.org/Graphics/SVG/1.1/DTD/svg11.dtd"><svg t="1527756233477" class="icon" style="" viewBox="0 0 1024 1024" version="1.1" xmlns="http://www.w3.org/2000/svg" p-id="2601" xmlns:xlink="http://www.w3.org/1999/xlink" width="200" height="200"><defs><style type="text/css"></style></defs><path d="M96 496v432a32 32 0 0 0 32 32h768a32 32 0 0 0 32-32V496a32 32 0 0 0-32-32H128a32 32 0 0 0-32 32z m768 400H160V528h704z" p-id="2602"></path><path d="M831.43 378c-2.94-174.19-145-314.5-319.93-314.5-176.73 0-320 143.27-320 320V496H256V384c0-141.38 114.62-256 256-256s256 114.62 256 256a32 32 0 1 0 63.43-6z" p-id="2603"></path></svg>