<?xml version="1.0" standalone="no"?><!DOCTYPE svg PUBLIC "-//W3C//DTD SVG 1.1//EN" "http://www.w3.org/Graphics/SVG/1.1/DTD/svg11.dtd"><svg t="1530522883395" class="icon" style="" viewBox="0 0 1024 1024" version="1.1" xmlns="http://www.w3.org/2000/svg" p-id="4143" xmlns:xlink="http://www.w3.org/1999/xlink" width="25" height="25"><defs><style type="text/css"></style></defs><path d="M794.337343 649.612171l-575.726394-16.931624L76.893274 278.373055l770.270205-51.354622L794.337343 649.612171zM240.791112 600.936565l525.074783 15.445784 44.304042-354.441545-686.672228 45.774533L240.791112 600.936565z" p-id="4144"></path><path d="M747.725746 924.385235c-44.62843 0-80.941474-36.313044-80.941474-80.941474 0-44.62843 36.313044-80.941474 80.941474-80.941474s80.941474 36.313044 80.941474 80.941474C828.666196 888.072191 792.354176 924.385235 747.725746 924.385235zM747.725746 794.879696c-26.779923 0-48.565089 21.784142-48.565089 48.565089 0 26.779923 21.784142 48.565089 48.565089 48.565089s48.565089-21.784142 48.565089-48.565089C796.289812 816.663838 774.505669 794.879696 747.725746 794.879696z" p-id="4145"></path><path d="M278.266631 924.385235c-44.62843 0-80.941474-36.313044-80.941474-80.941474 0-44.62843 36.313044-80.941474 80.941474-80.941474s80.941474 36.313044 80.941474 80.941474C359.207082 888.072191 322.894038 924.385235 278.266631 924.385235zM278.266631 794.879696c-26.779923 0-48.565089 21.784142-48.565089 48.565089 0 26.779923 21.784142 48.565089 48.565089 48.565089s48.565089-21.784142 48.565089-48.565089C326.830697 816.663838 305.046554 794.879696 278.266631 794.879696z" p-id="4146"></path><path d="M844.633866 247.142773 812.69955 241.815441 830.492798 135.073348 936.862407 99.614765 947.106726 130.331347 859.217003 159.624511Z" p-id="4147"></path><path d="M747.725746 738.220255 732.691331 707.922205 756.460688 648.49779 794.337343 649.612171Z" p-id="4148"></path><path d="M201.25363 758.639307 193.396685 729.909985 262.077927 715.922413 735.278249 715.922413 735.278249 747.644905 264.070304 747.644905Z" p-id="4149"></path></svg>