<?xml version="1.0" standalone="no"?><!DOCTYPE svg PUBLIC "-//W3C//DTD SVG 1.1//EN" "http://www.w3.org/Graphics/SVG/1.1/DTD/svg11.dtd"><svg t="1527756195764" class="icon" style="" viewBox="0 0 1024 1024" version="1.1" xmlns="http://www.w3.org/2000/svg" p-id="1924" xmlns:xlink="http://www.w3.org/1999/xlink" width="200" height="200"><defs><style type="text/css"></style></defs><path d="M632.618667 577.237333c105.728-46.570667 179.84-152.192 179.84-274.965333 0-165.674667-134.784-300.437333-300.458667-300.437333S211.562667 136.597333 211.562667 302.272c0 122.752 74.090667 228.394667 179.818667 274.965333C206.826667 629.866667 71.189333 799.616 71.189333 1000.832c0 11.797333 9.557333 21.333333 21.333333 21.333333s21.333333-9.536 21.333333-21.333333c0-219.52 178.602667-398.122667 398.144-398.122667s398.144 178.602667 398.144 398.122667c0 11.797333 9.536 21.333333 21.333333 21.333333s21.333333-9.536 21.333333-21.333333C952.810667 799.616 817.173333 629.866667 632.618667 577.237333zM254.229333 302.272c0-142.144 115.626667-257.770667 257.770667-257.770667 142.144 0 257.792 115.626667 257.792 257.770667S654.144 560.042667 512 560.042667C369.856 560.042667 254.229333 444.416 254.229333 302.272z" p-id="1925"></path></svg>